Coordinates
version=1
nRows=18
nColumns=22
inDegrees=yes

Units are S.I. units (second, meters, Newtons, ...)
If the header above contains a line with 'inDegrees', this indicates whether rotational values are in degrees (yes) or radians (no).

endheader
time	pelvis_tilt	pelvis_list	pelvis_rotation	pelvis_tx	pelvis_ty	pelvis_tz	hip_flexion_r	hip_adduction_r	hip_rotation_r	knee_angle_r	ankle_angle_r	subtalar_angle_r	hip_flexion_l	hip_adduction_l	hip_rotation_l	knee_angle_l	ankle_angle_l	subtalar_angle_l	lumbar_extension	lumbar_bending	lumbar_rotation
      3.91000000	     -2.08656243	    -11.67272281	     47.74635032	      0.96388154	      0.97299514	      0.36091032	     27.55194988	      8.11886024	     -0.78595862	    -24.77458421	     12.68521740	     -2.78738714	     26.28559326	     -7.18852984	     -2.23890675	    -65.20174493	      9.28517736	      4.63395330	      1.97382365	      8.60802924	      4.11339408
      3.92000000	     -2.04566795	    -11.64427588	     47.96946782	      0.96803841	      0.97350684	      0.35834545	     27.16518150	      8.16185079	     -0.94385458	    -24.69729187	     12.91281868	     -2.98264975	     26.80323971	     -7.30783576	     -2.62902960	    -64.58021269	     10.05426477	      4.86005282	      1.84234494	      8.63923670	      4.43043484
      3.93000000	     -2.00158361	    -11.61065645	     48.19209864	      0.97214468	      0.97398155	      0.35576473	     26.77979114	      8.20625666	     -1.09459681	    -24.63112258	     13.13763888	     -3.19402431	     27.26461271	     -7.41895218	     -2.96898165	    -63.83103982	     10.84634587	      5.01441244	      1.72214428	      8.66359263	      4.71883793
      3.94000000	     -1.99253246	    -11.60310108	     48.43341541	      0.97613332	      0.97432749	      0.35316675	     26.46648256	      8.22797482	     -1.27443783	    -24.60647358	     13.37096698	     -3.30252917	     27.73613316	     -7.49175419	     -3.22026020	    -62.97593809	     11.65832082	      5.04209862	      1.67248335	      8.67240157	      4.94580317
      3.95000000	     -1.89085912	    -11.51853418	     48.66480128	      0.98017403	      0.97484548	      0.35052374	     25.99839337	      8.29123901	     -1.40174589	    -24.53315665	     13.57746794	     -3.67583897	     28.01818462	     -7.60644700	     -3.46725006	    -62.00864958	     12.45950106	      5.08819913	      1.49794752	      8.69355610	      5.18155743
      3.96000000	     -1.82689039	    -11.46938809	     48.92555489	      0.98408328	      0.97521655	      0.34785869	     25.61373780	      8.33164574	     -1.57063852	    -24.50340788	     13.80069799	     -3.96074422	     28.33335486	     -7.68683058	     -3.62419336	    -60.97153980	     13.24501998	      4.99610841	      1.40545202	      8.70617403	      5.33156100
      3.97000000	     -1.81027666	    -11.46824458	     49.18906119	      0.98788733	      0.97544106	      0.34520849	     25.31406820	      8.36780978	     -1.70032627	    -24.49078436	     14.02094668	     -4.07745493	     28.69709153	     -7.73960821	     -3.70007163	    -59.87706021	     14.00760984	      4.92271235	      1.40755830	      8.71215196	      5.44793911
      3.98000000	     -1.67130891	    -11.36335252	     49.48163440	      0.99168247	      0.97590133	      0.34246344	     24.82080598	      8.42450553	     -1.87747893	    -24.43001629	     14.24589974	     -4.46343965	     28.85053709	     -7.82299020	     -3.75024356	    -58.71616518	     14.70379934	      4.53397032	      1.23326636	      8.73720799	      5.53912756
      3.99000000	     -1.58864010	    -11.31802023	     49.76535598	      0.99537703	      0.97618444	      0.33977789	     24.43436059	      8.48048393	     -2.02333688	    -24.39424343	     14.47368816	     -4.71519878	     29.08440217	     -7.89488543	     -3.75306923	    -57.53977302	     15.37458301	      4.14678118	      1.16323853	      8.75636006	      5.59659792
      4.00000000	     -1.49592237	    -11.27202635	     50.05487881	      0.99898948	      0.97644987	      0.33708907	     24.04264433	      8.53992510	     -2.17278096	    -24.35623501	     14.71392020	     -4.92059772	     29.30100372	     -7.96773204	     -3.71823217	    -56.35102062	     15.99282794	      3.68232286	      1.09117804	      8.78132611	      5.63924362
      4.01000000	     -1.40610555	    -11.23111072	     50.33711472	      1.00252229	      0.97668310	      0.33442104	     23.65749581	      8.60231781	     -2.30972233	    -24.31088581	     14.95429037	     -5.09920918	     29.51847175	     -8.03954702	     -3.66031530	    -55.16440044	     16.55292102	      3.13799783	      1.02654011	      8.80673583	      5.67164594
      4.02000000	     -1.31918490	    -11.19474901	     50.61438507	      1.00595565	      0.97688666	      0.33176631	     23.27915585	      8.66312491	     -2.44960527	    -24.25896089	     15.20169226	     -5.25497810	     29.74366854	     -8.10172551	     -3.57099421	    -53.99311374	     17.04832580	      2.55900346	      0.96673936	      8.83252041	      5.71175646
      4.03000000	     -1.24436874	    -11.16186150	     50.87400305	      1.00930754	      0.97706694	      0.32913600	     22.90629041	      8.72155126	     -2.56994542	    -24.18914645	     15.43872242	     -5.40458656	     29.97999835	     -8.15213250	     -3.46943036	    -52.84134991	     17.47965170	      1.96047042	      0.91434729	      8.85039967	      5.75392782
      4.04000000	     -1.17889337	    -11.12896618	     51.12527024	      1.01254537	      0.97722500	      0.32650752	     22.53999283	      8.76963489	     -2.69405167	    -24.11198246	     15.67522468	     -5.55025873	     30.22983941	     -8.17881215	     -3.34082272	    -51.72103223	     17.84908419	      1.42868251	      0.86436802	      8.86283959	      5.81099074
      4.05000000	     -1.12737187	    -11.09179243	     51.35546959	      1.01569003	      0.97737634	      0.32387750	     22.17443074	      8.80674915	     -2.81097669	    -24.01999698	     15.89992451	     -5.70835713	     30.48631293	     -8.17968102	     -3.20072974	    -50.63120871	     18.16342316	      0.96710629	      0.81432765	      8.86329362	      5.88100409
      4.06000000	     -1.09392554	    -11.05152798	     51.56688382	      1.01872207	      0.97751025	      0.32123816	     21.82058836	      8.82637425	     -2.92968054	    -23.92632135	     16.11955278	     -5.86776271	     30.75447040	     -8.14554877	     -3.04056804	    -49.57828660	     18.42975928	      0.65873284	      0.76823990	      8.85131582	      5.96887474
      4.07000000	     -1.07280008	    -10.99887448	     51.75874054	      1.02164970	      0.97766249	      0.31858265	     21.45579477	      8.83449550	     -3.00587843	    -23.81192118	     16.30643031	     -6.05539798	     31.01503274	     -8.06960912	     -2.84793082	    -48.55675226	     18.62855185	      0.44730157	      0.71254717	      8.82627711	      6.06948403
      4.08000000	     -1.06808770	    -10.93894618	     51.92989748	      1.02447144	      0.97780771	      0.31590904	     21.10308506	      8.82179665	     -3.09206483	    -23.70667452	     16.49104740	     -6.23894119	     31.27424892	     -7.95422451	     -2.62852563	    -47.57314843	     18.77795382	      0.40270093	      0.65535569	      8.78641329	      6.18573645
